<?xml version="1.0" encoding="UTF-8" standalone="no"?>
<!-- Created with xTool Creative Space (https://www.xtool.com/pages/software) -->

<svg
   version="1.1"
   preserveAspectRatio="xMinYMin meet"
   width="225.1255950927735mm"
   height="109.08174133300781mm"
   viewBox="87.43720245361328 95.4591293334961 225.1255950927735 109.08174133300781"
   xcs:version="2.6.38"
   id="svg4"
   sodipodi:docname="puzzle.svg"
   inkscape:version="1.3.2 (091e20e, 2023-11-25, custom)"
   xmlns:inkscape="http://www.inkscape.org/namespaces/inkscape"
   xmlns:sodipodi="http://sodipodi.sourceforge.net/DTD/sodipodi-0.dtd"
   xmlns="http://www.w3.org/2000/svg"
   xmlns:svg="http://www.w3.org/2000/svg"
   xmlns:xcs="https://www.xtool.com/pages/software">
  <defs
     id="defs4" />
  <sodipodi:namedview
     id="namedview4"
     pagecolor="#ffffff"
     bordercolor="#000000"
     borderopacity="0.25"
     inkscape:showpageshadow="2"
     inkscape:pageopacity="0.0"
     inkscape:pagecheckerboard="0"
     inkscape:deskcolor="#d1d1d1"
     inkscape:document-units="mm"
     inkscape:zoom="0.92611267"
     inkscape:cx="425.4342"
     inkscape:cy="206.2384"
     inkscape:window-width="1280"
     inkscape:window-height="730"
     inkscape:window-x="-6"
     inkscape:window-y="-6"
     inkscape:window-maximized="1"
     inkscape:current-layer="svg4" />
  <style
     id="style1" />
  <path
     transform="matrix(1,0,0,1,87.437202,-47.015633)"
     stroke="#000000"
     fill="none"
     vector-effect="non-scaling-stroke"
     data-view-type="laser"
     d="M 24.0639 211.6864 C 54.1938 188.8713 92.1529 178.9597 129.5906 184.1320 C 167.0284 189.3043 200.8781 209.1369 223.6932 239.2667 L 223.6609 239.2435 L 223.6286 239.2202 L 223.5963 239.1970 L 223.5640 239.1738 L 223.5317 239.1506 L 223.4995 239.1274 L 223.4672 239.1042 L 223.4350 239.0810 L 223.4028 239.0578 L 223.3705 239.0347 L 223.3383 239.0115 L 223.3061 238.9883 L 223.2739 238.9652 L 223.2417 238.9421 L 223.2095 238.9189 L 223.1773 238.8958 L 223.1452 238.8727 L 223.1130 238.8496 L 223.0809 238.8265 L 223.0487 238.8034 L 223.0487 238.8034 L 222.8348 238.6499 L 222.6213 238.4968 L 222.4081 238.3440 L 222.1953 238.1916 L 221.9828 238.0396 L 221.7706 237.8879 L 221.5588 237.7366 L 221.3473 237.5857 L 221.1361 237.4351 L 220.9252 237.2849 L 220.7145 237.1351 L 220.5042 236.9856 L 220.2942 236.8365 L 220.0845 236.6877 L 219.8750 236.5393 L 219.6658 236.3912 L 219.4569 236.2434 L 219.2482 236.0960 L 219.0398 235.9490 L 218.8316 235.8023 L 218.8316 235.8023 L 218.6236 235.6559 L 218.4158 235.5099 L 218.2083 235.3641 L 218.0009 235.2188 L 217.7938 235.0737 L 217.5869 234.9290 L 217.3801 234.7845 L 217.1735 234.6404 L 216.9670 234.4966 L 216.7607 234.3531 L 216.5545 234.2100 L 216.3485 234.0671 L 216.1426 233.9245 L 215.9368 233.7822 L 215.7310 233.6402 L 215.5254 233.4985 L 215.3198 233.3571 L 215.1143 233.2159 L 214.9089 233.0751 L 214.7035 232.9344 L 214.7035 232.9344 L 214.4981 232.7941 L 214.2928 232.6540 L 214.0875 232.5142 L 213.8821 232.3747 L 213.6768 232.2354 L 213.4714 232.0963 L 213.2660 231.9575 L 213.0605 231.8189 L 212.8550 231.6805 L 212.6494 231.5424 L 212.4437 231.4045 L 212.2379 231.2668 L 212.0320 231.1294 L 211.8259 230.9921 L 211.6198 230.8551 L 211.4135 230.7182 L 211.2070 230.5816 L 211.0004 230.4451 L 210.7935 230.3089 L 210.5865 230.1728 L 210.5865 230.1728 L 210.3793 230.0369 L 210.1718 229.9012 L 209.9641 229.7656 L 209.7562 229.6302 L 209.5480 229.4950 L 209.3395 229.3599 L 209.1308 229.2250 L 208.9217 229.0902 L 208.7123 228.9555 L 208.5026 228.8210 L 208.2926 228.6867 L 208.0822 228.5524 L 207.8715 228.4183 L 207.6604 228.2843 L 207.4489 228.1504 L 207.2370 228.0166 L 207.0247 227.8830 L 206.8120 227.7494 L 206.5988 227.6159 L 206.3852 227.4825 L 206.3852 227.4825 L 206.1712 227.3492 L 205.9566 227.2160 L 205.7416 227.0828 L 205.5261 226.9497 L 205.3101 226.8167 L 205.0936 226.6838 L 204.8765 226.5509 L 204.6589 226.4180 L 204.4408 226.2853 L 204.2221 226.1525 L 204.0028 226.0198 L 203.7829 225.8872 L 203.5624 225.7545 L 203.3414 225.6219 L 203.1197 225.4894 L 202.8974 225.3568 L 202.6744 225.2243 L 202.4508 225.0917 L 202.2266 224.9592 L 202.0016 224.8267 L 202.0016 224.8267 L 201.7760 224.6942 L 201.5498 224.5617 L 201.3228 224.4291 L 201.0951 224.2966 L 200.8667 224.1641 L 200.6376 224.0315 L 200.4078 223.8989 L 200.1772 223.7663 L 199.9459 223.6337 L 199.7138 223.5010 L 199.4810 223.3683 L 199.2473 223.2355 L 199.0130 223.1028 L 198.7778 222.9699 L 198.5419 222.8371 L 198.3051 222.7041 L 198.0676 222.5712 L 197.8292 222.4381 L 197.5900 222.3051 L 197.3500 222.1719 L 197.3500 222.1719 L 197.1092 222.0387 L 196.8676 221.9054 L 196.6251 221.7721 L 196.3818 221.6387 L 196.1376 221.5052 L 195.8926 221.3716 L 195.6467 221.2380 L 195.3999 221.1043 L 195.1523 220.9705 L 194.9039 220.8366 L 194.6545 220.7027 L 194.4043 220.5686 L 194.1532 220.4345 L 193.9012 220.3003 L 193.6484 220.1660 L 193.3946 220.0316 L 193.1400 219.8971 L 192.8844 219.7625 L 192.6280 219.6278 L 192.3707 219.4930 L 192.3707 219.4930 L 192.1124 219.3581 L 191.8533 219.2231 L 191.5932 219.0879 L 191.3323 218.9527 L 191.0704 218.8174 L 190.8077 218.6820 L 190.5440 218.5465 L 190.2794 218.4108 L 190.0138 218.2751 L 189.7474 218.1392 L 189.4800 218.0032 L 189.2118 217.8671 L 188.9426 217.7309 L 188.6724 217.5946 L 188.4014 217.4581 L 188.1294 217.3216 L 187.8565 217.1849 L 187.5827 217.0481 L 187.3079 216.9112 L 187.0322 216.7742 L 187.0322 216.7742 L 186.8747 216.6960 L 186.7168 216.6177 L 186.5586 216.5395 L 186.4001 216.4612 L 186.2413 216.3828 L 186.0822 216.3044 L 185.9228 216.2260 L 185.7631 216.1475 L 185.6031 216.0690 L 185.4427 215.9905 L 185.2821 215.9119 L 185.1212 215.8333 L 184.9600 215.7546 L 184.7985 215.6759 L 184.6367 215.5972 L 184.4745 215.5184 L 184.3121 215.4395 L 184.1494 215.3607 L 183.9864 215.2817 L 183.8230 215.2028 C 123.0229 174.4803 40.7225 190.7564 0.0000 251.5565 L 0.0790 251.3932 L 0.1579 251.2302 L 0.2367 251.0675 L 0.3156 250.9050 L 0.3944 250.7429 L 0.4731 250.5811 L 0.5518 250.4196 L 0.6305 250.2584 L 0.7091 250.0974 L 0.7877 249.9368 L 0.8663 249.7765 L 0.9448 249.6165 L 1.0232 249.4568 L 1.1017 249.2974 L 1.1800 249.1383 L 1.2584 248.9795 L 1.3367 248.8210 L 1.4150 248.6628 L 1.4932 248.5049 L 1.5714 248.3473 L 1.5714 248.3473 L 1.7084 248.0717 L 1.8453 247.7969 L 1.9821 247.5231 L 2.1188 247.2502 L 2.2554 246.9782 L 2.3918 246.7072 L 2.5281 246.4370 L 2.6643 246.1678 L 2.8004 245.8995 L 2.9364 245.6322 L 3.0723 245.3657 L 3.2080 245.1002 L 3.3437 244.8356 L 3.4792 244.5719 L 3.6146 244.3091 L 3.7500 244.0473 L 3.8852 243.7863 L 4.0203 243.5263 L 4.1553 243.2671 L 4.2902 243.0089 L 4.2902 243.0089 L 4.4250 242.7516 L 4.5597 242.4951 L 4.6943 242.2396 L 4.8288 241.9850 L 4.9632 241.7312 L 5.0975 241.4783 L 5.2317 241.2264 L 5.3659 240.9753 L 5.4999 240.7250 L 5.6339 240.4757 L 5.7677 240.2272 L 5.9015 239.9796 L 6.0352 239.7329 L 6.1689 239.4870 L 6.3024 239.2420 L 6.4359 238.9978 L 6.5693 238.7545 L 6.7027 238.5120 L 6.8359 238.2704 L 6.9691 238.0295 L 6.9691 238.0295 L 7.1023 237.7895 L 7.2354 237.5504 L 7.3684 237.3120 L 7.5014 237.0745 L 7.6343 236.8377 L 7.7672 236.6018 L 7.9000 236.3666 L 8.0328 236.1322 L 8.1655 235.8986 L 8.2982 235.6658 L 8.4309 235.4337 L 8.5635 235.2024 L 8.6961 234.9718 L 8.8287 234.7420 L 8.9613 234.5129 L 9.0938 234.2845 L 9.2264 234.0568 L 9.3589 233.8298 L 9.4914 233.6035 L 9.6239 233.3779 L 9.6239 233.3779 L 9.7564 233.1530 L 9.8889 232.9288 L 10.0215 232.7052 L 10.1540 232.4822 L 10.2866 232.2599 L 10.4191 232.0382 L 10.5518 231.8171 L 10.6844 231.5967 L 10.8170 231.3768 L 10.9497 231.1575 L 11.0825 230.9388 L 11.2153 230.7207 L 11.3481 230.5031 L 11.4810 230.2860 L 11.6139 230.0695 L 11.7470 229.8535 L 11.8800 229.6380 L 12.0132 229.4229 L 12.1464 229.2084 L 12.2797 228.9944 L 12.2797 228.9944 L 12.4131 228.7808 L 12.5466 228.5676 L 12.6802 228.3549 L 12.8138 228.1426 L 12.9476 227.9307 L 13.0815 227.7192 L 13.2155 227.5081 L 13.3496 227.2973 L 13.4839 227.0870 L 13.6183 226.8769 L 13.7528 226.6673 L 13.8874 226.4579 L 14.0222 226.2488 L 14.1571 226.0401 L 14.2922 225.8316 L 14.4274 225.6234 L 14.5628 225.4154 L 14.6984 225.2078 L 14.8341 225.0003 L 14.9700 224.7931 L 14.9700 224.7931 L 15.1061 224.5860 L 15.2424 224.3792 L 15.3788 224.1726 L 15.5155 223.9661 L 15.6523 223.7598 L 15.7893 223.5536 L 15.9266 223.3476 L 16.0641 223.1417 L 16.2017 222.9359 L 16.3396 222.7302 L 16.4778 222.5246 L 16.6161 222.3191 L 16.7547 222.1136 L 16.8935 221.9082 L 17.0326 221.7028 L 17.1719 221.4974 L 17.3114 221.2921 L 17.4513 221.0868 L 17.5913 220.8814 L 17.7317 220.6761 L 17.7317 220.6761 L 17.8723 220.4707 L 18.0131 220.2652 L 18.1543 220.0597 L 18.2957 219.8542 L 18.4374 219.6485 L 18.5794 219.4428 L 18.7217 219.2370 L 18.8643 219.0311 L 19.0072 218.8250 L 19.1504 218.6189 L 19.2939 218.4126 L 19.4377 218.2061 L 19.5818 217.9995 L 19.7262 217.7927 L 19.8709 217.5858 L 20.0160 217.3786 L 20.1614 217.1713 L 20.3071 216.9638 L 20.4531 216.7560 L 20.5995 216.5480 L 20.5995 216.5480 L 20.7462 216.3398 L 20.8933 216.1314 L 21.0407 215.9227 L 21.1884 215.7138 L 21.3365 215.5046 L 21.4849 215.2951 L 21.6337 215.0854 L 21.7828 214.8753 L 21.9323 214.6650 L 22.0822 214.4544 L 22.2324 214.2435 L 22.3829 214.0323 L 22.5339 213.8208 L 22.6852 213.6089 L 22.8368 213.3968 L 22.9888 213.1843 L 23.1412 212.9714 L 23.2940 212.7583 L 23.4471 212.5447 L 23.6007 212.3309 L 23.6007 212.3309 L 23.6237 212.2987 L 23.6468 212.2666 L 23.6699 212.2344 L 23.6930 212.2022 L 23.7162 212.1701 L 23.7393 212.1379 L 23.7624 212.1057 L 23.7856 212.0735 L 23.8087 212.0413 L 23.8319 212.0090 L 23.8550 211.9768 L 23.8782 211.9446 L 23.9014 211.9123 L 23.9246 211.8801 L 23.9478 211.8478 L 23.9710 211.8156 L 23.9942 211.7833 L 24.0175 211.7510 L 24.0407 211.7187 L 24.0639 211.6864 "
     fill-rule="nonzero"
     id="path1"
     style="stroke-width:0.02;stroke-dasharray:none" />
  <path
     transform="matrix(1,0,0,1,87.437202,-47.015633)"
     stroke="#000000"
     fill="none"
     vector-effect="non-scaling-stroke"
     data-view-type="laser"
     d="M 24.8960 183.4445 C 88.4577 137.0368 177.6057 150.9429 224.0134 214.5046 L 223.9815 214.4808 L 223.9497 214.4570 L 223.9178 214.4333 L 223.8859 214.4095 L 223.8541 214.3857 L 223.8222 214.3619 L 223.7904 214.3382 L 223.7585 214.3144 L 223.7267 214.2907 L 223.6949 214.2670 L 223.6631 214.2433 L 223.6313 214.2196 L 223.5995 214.1959 L 223.5677 214.1722 L 223.5359 214.1485 L 223.5042 214.1248 L 223.4724 214.1011 L 223.4407 214.0775 L 223.4089 214.0538 L 223.3772 214.0302 L 223.3772 214.0302 L 223.1660 213.8730 L 222.9552 213.7161 L 222.7447 213.5597 L 222.5346 213.4036 L 222.3248 213.2479 L 222.1153 213.0925 L 221.9061 212.9375 L 221.6972 212.7830 L 221.4887 212.6287 L 221.2804 212.4749 L 221.0725 212.3214 L 220.8648 212.1682 L 220.6574 212.0154 L 220.4503 211.8630 L 220.2435 211.7110 L 220.0369 211.5592 L 219.8306 211.4079 L 219.6245 211.2569 L 219.4186 211.1062 L 219.2130 210.9559 L 219.2130 210.9559 L 219.0076 210.8059 L 218.8025 210.6563 L 218.5975 210.5069 L 218.3927 210.3580 L 218.1882 210.2093 L 217.9838 210.0610 L 217.7795 209.9130 L 217.5755 209.7653 L 217.3715 209.6179 L 217.1678 209.4708 L 216.9641 209.3241 L 216.7606 209.1776 L 216.5572 209.0315 L 216.3539 208.8856 L 216.1507 208.7400 L 215.9476 208.5948 L 215.7445 208.4498 L 215.5415 208.3051 L 215.3386 208.1606 L 215.1357 208.0164 L 215.1357 208.0164 L 214.9328 207.8725 L 214.7299 207.7289 L 214.5270 207.5855 L 214.3242 207.4424 L 214.1213 207.2995 L 213.9184 207.1569 L 213.7154 207.0145 L 213.5124 206.8724 L 213.3093 206.7305 L 213.1061 206.5888 L 212.9029 206.4473 L 212.6995 206.3061 L 212.4960 206.1650 L 212.2924 206.0242 L 212.0887 205.8836 L 211.8848 205.7432 L 211.6808 205.6029 L 211.4765 205.4629 L 211.2721 205.3230 L 211.0675 205.1834 L 211.0675 205.1834 L 210.8627 205.0439 L 210.6576 204.9045 L 210.4523 204.7654 L 210.2468 204.6264 L 210.0410 204.4875 L 209.8349 204.3488 L 209.6285 204.2103 L 209.4218 204.0719 L 209.2148 203.9336 L 209.0075 203.7954 L 208.7999 203.6574 L 208.5919 203.5195 L 208.3835 203.3818 L 208.1748 203.2441 L 207.9656 203.1065 L 207.7561 202.9691 L 207.5462 202.8317 L 207.3358 202.6944 L 207.1250 202.5573 L 206.9138 202.4202 L 206.9138 202.4202 L 206.7021 202.2831 L 206.4899 202.1462 L 206.2773 202.0093 L 206.0641 201.8725 L 205.8505 201.7357 L 205.6363 201.5990 L 205.4216 201.4624 L 205.2063 201.3257 L 204.9905 201.1892 L 204.7742 201.0526 L 204.5572 200.9161 L 204.3397 200.7796 L 204.1216 200.6432 L 203.9029 200.5067 L 203.6835 200.3703 L 203.4636 200.2339 L 203.2430 200.0975 L 203.0217 199.9611 L 202.7998 199.8247 L 202.5772 199.6883 L 202.5772 199.6883 L 202.3540 199.5518 L 202.1300 199.4154 L 201.9054 199.2789 L 201.6801 199.1424 L 201.4540 199.0059 L 201.2273 198.8694 L 200.9998 198.7328 L 200.7716 198.5962 L 200.5426 198.4595 L 200.3129 198.3228 L 200.0824 198.1861 L 199.8511 198.0493 L 199.6191 197.9124 L 199.3863 197.7755 L 199.1527 197.6385 L 198.9183 197.5015 L 198.6831 197.3644 L 198.4471 197.2272 L 198.2103 197.0900 L 197.9727 196.9527 L 197.9727 196.9527 L 197.7342 196.8153 L 197.4949 196.6778 L 197.2548 196.5403 L 197.0138 196.4026 L 196.7720 196.2649 L 196.5294 196.1271 L 196.2859 195.9892 L 196.0415 195.8512 L 195.7963 195.7131 L 195.5502 195.5749 L 195.3032 195.4366 L 195.0554 195.2983 L 194.8067 195.1598 L 194.5571 195.0212 L 194.3066 194.8824 L 194.0552 194.7436 L 193.8029 194.6047 L 193.5498 194.4657 L 193.2958 194.3265 L 193.0408 194.1872 L 193.0408 194.1872 L 192.7850 194.0479 L 192.5282 193.9084 L 192.2706 193.7687 L 192.0120 193.6290 L 191.7526 193.4891 L 191.4922 193.3491 L 191.2309 193.2090 L 190.9687 193.0688 L 190.7056 192.9284 L 190.4416 192.7879 L 190.1766 192.6473 L 189.9108 192.5065 L 189.6440 192.3656 L 189.3763 192.2246 L 189.1076 192.0835 L 188.8381 191.9422 L 188.5676 191.8008 L 188.2962 191.6592 L 188.0239 191.5175 L 187.7506 191.3757 L 187.7506 191.3757 L 187.5944 191.2948 L 187.4379 191.2138 L 187.2811 191.1328 L 187.1240 191.0517 L 186.9666 190.9706 L 186.8089 190.8895 L 186.6509 190.8083 L 186.4926 190.7270 L 186.3340 190.6457 L 186.1751 190.5644 L 186.0158 190.4830 L 185.8563 190.4016 L 185.6965 190.3201 L 185.5364 190.2386 L 185.3760 190.1571 L 185.2153 190.0754 L 185.0542 189.9938 L 184.8929 189.9121 L 184.7313 189.8303 L 184.5694 189.7485 C 124.4892 147.9711 41.9173 162.8084 0.1399 222.8886 L 0.2217 222.7267 L 0.3034 222.5651 L 0.3851 222.4037 L 0.4668 222.2427 L 0.5484 222.0820 L 0.6299 221.9216 L 0.7114 221.7614 L 0.7929 221.6016 L 0.8743 221.4421 L 0.9557 221.2829 L 1.0370 221.1240 L 1.1183 220.9654 L 1.1996 220.8071 L 1.2808 220.6491 L 1.3619 220.4913 L 1.4430 220.3339 L 1.5241 220.1768 L 1.6051 220.0200 L 1.6861 219.8635 L 1.7670 219.7073 L 1.7670 219.7073 L 1.9088 219.4341 L 2.0505 219.1617 L 2.1921 218.8904 L 2.3335 218.6199 L 2.4748 218.3503 L 2.6159 218.0817 L 2.7569 217.8140 L 2.8978 217.5472 L 3.0386 217.2813 L 3.1792 217.0164 L 3.3197 216.7524 L 3.4601 216.4893 L 3.6003 216.2271 L 3.7404 215.9658 L 3.8804 215.7054 L 4.0203 215.4459 L 4.1600 215.1874 L 4.2997 214.9297 L 4.4392 214.6730 L 4.5786 214.4172 L 4.5786 214.4172 L 4.7178 214.1622 L 4.8570 213.9082 L 4.9960 213.6550 L 5.1349 213.4028 L 5.2738 213.1514 L 5.4125 212.9009 L 5.5511 212.6513 L 5.6896 212.4026 L 5.8280 212.1548 L 5.9662 211.9078 L 6.1044 211.6617 L 6.2425 211.4165 L 6.3805 211.1721 L 6.5184 210.9286 L 6.6562 210.6859 L 6.7940 210.4441 L 6.9316 210.2032 L 7.0691 209.9630 L 7.2066 209.7238 L 7.3440 209.4853 L 7.3440 209.4853 L 7.4813 209.2477 L 7.6186 209.0109 L 7.7557 208.7749 L 7.8928 208.5397 L 8.0298 208.3053 L 8.1668 208.0717 L 8.3037 207.8389 L 8.4406 207.6068 L 8.5774 207.3756 L 8.7141 207.1451 L 8.8508 206.9154 L 8.9875 206.6864 L 9.1241 206.4582 L 9.2607 206.2307 L 9.3972 206.0039 L 9.5337 205.7779 L 9.6702 205.5525 L 9.8067 205.3279 L 9.9431 205.1040 L 10.0796 204.8807 L 10.0796 204.8807 L 10.2160 204.6582 L 10.3524 204.4363 L 10.4888 204.2150 L 10.6252 203.9944 L 10.7616 203.7744 L 10.8981 203.5551 L 11.0345 203.3364 L 11.1710 203.1183 L 11.3074 202.9007 L 11.4439 202.6838 L 11.5805 202.4674 L 11.7170 202.2516 L 11.8537 202.0364 L 11.9903 201.8217 L 12.1270 201.6075 L 12.2638 201.3939 L 12.4006 201.1807 L 12.5375 200.9680 L 12.6744 200.7559 L 12.8115 200.5442 L 12.8115 200.5442 L 12.9486 200.3329 L 13.0857 200.1221 L 13.2230 199.9118 L 13.3604 199.7018 L 13.4978 199.4923 L 13.6354 199.2832 L 13.7731 199.0745 L 13.9108 198.8661 L 14.0487 198.6581 L 14.1868 198.4504 L 14.3249 198.2431 L 14.4632 198.0361 L 14.6016 197.8295 L 14.7401 197.6231 L 14.8788 197.4170 L 15.0177 197.2112 L 15.1567 197.0057 L 15.2958 196.8004 L 15.4352 196.5953 L 15.5747 196.3905 L 15.5747 196.3905 L 15.7143 196.1859 L 15.8542 195.9814 L 15.9942 195.7772 L 16.1345 195.5732 L 16.2749 195.3693 L 16.4155 195.1655 L 16.5563 194.9619 L 16.6974 194.7585 L 16.8386 194.5551 L 16.9801 194.3518 L 17.1218 194.1487 L 17.2637 193.9456 L 17.4058 193.7426 L 17.5482 193.5396 L 17.6909 193.3367 L 17.8337 193.1338 L 17.9768 192.9309 L 18.1202 192.7281 L 18.2639 192.5252 L 18.4078 192.3223 L 18.4078 192.3223 L 18.5519 192.1194 L 18.6964 191.9164 L 18.8411 191.7134 L 18.9861 191.5104 L 19.1314 191.3073 L 19.2769 191.1040 L 19.4228 190.9007 L 19.5689 190.6973 L 19.7154 190.4938 L 19.8621 190.2902 L 20.0092 190.0864 L 20.1566 189.8825 L 20.3043 189.6784 L 20.4523 189.4742 L 20.6006 189.2698 L 20.7493 189.0652 L 20.8983 188.8605 L 21.0476 188.6555 L 21.1972 188.4503 L 21.3472 188.2449 L 21.3472 188.2449 L 21.4975 188.0393 L 21.6482 187.8335 L 21.7992 187.6274 L 21.9506 187.4211 L 22.1023 187.2145 L 22.2543 187.0077 L 22.4068 186.8005 L 22.5595 186.5932 L 22.7127 186.3855 L 22.8662 186.1775 L 23.0200 185.9693 L 23.1743 185.7607 L 23.3289 185.5519 L 23.4838 185.3427 L 23.6392 185.1332 L 23.7949 184.9234 L 23.9510 184.7132 L 24.1074 184.5028 L 24.2643 184.2920 L 24.4215 184.0808 L 24.4215 184.0808 L 24.4451 184.0491 L 24.4688 184.0173 L 24.4924 183.9856 L 24.5161 183.9538 L 24.5398 183.9220 L 24.5635 183.8902 L 24.5872 183.8585 L 24.6109 183.8267 L 24.6346 183.7949 L 24.6583 183.7631 L 24.6820 183.7312 L 24.7058 183.6994 L 24.7295 183.6676 L 24.7533 183.6357 L 24.7770 183.6039 L 24.8008 183.5720 L 24.8246 183.5402 L 24.8484 183.5083 L 24.8721 183.4764 L 24.8960 183.4445 "
     fill-rule="nonzero"
     id="path2"
     style="stroke-width:0.02;stroke-dasharray:none" />
  <path
     transform="matrix(1,0,0,1,87.437202,-47.015633)"
     stroke="#000000"
     fill="none"
     vector-effect="non-scaling-stroke"
     data-view-type="laser"
     d="M 0.7300 236.0810 L 0.8118 235.9191 L 0.8936 235.7575 L 0.9753 235.5962 L 1.0569 235.4351 L 1.1385 235.2744 L 1.2201 235.1140 L 1.3016 234.9539 L 1.3831 234.7941 L 1.4645 234.6346 L 1.5459 234.4753 L 1.6272 234.3164 L 1.7085 234.1578 L 1.7897 233.9995 L 1.8709 233.8415 L 1.9521 233.6838 L 2.0332 233.5264 L 2.1142 233.3693 L 2.1953 233.2125 L 2.2762 233.0560 L 2.3571 232.8998 L 2.3571 232.8998 L 2.4990 232.6265 L 2.6407 232.3542 L 2.7822 232.0828 L 2.9236 231.8123 L 3.0649 231.5428 L 3.2061 231.2741 L 3.3471 231.0064 L 3.4880 230.7397 L 3.6287 230.4738 L 3.7694 230.2088 L 3.9099 229.9448 L 4.0502 229.6817 L 4.1905 229.4195 L 4.3306 229.1582 L 4.4706 228.8978 L 4.6105 228.6384 L 4.7502 228.3798 L 4.8898 228.1222 L 5.0293 227.8654 L 5.1687 227.6096 L 5.1687 227.6096 L 5.3080 227.3546 L 5.4471 227.1006 L 5.5862 226.8475 L 5.7251 226.5952 L 5.8639 226.3438 L 6.0026 226.0933 L 6.1412 225.8437 L 6.2797 225.5950 L 6.4181 225.3472 L 6.5564 225.1002 L 6.6946 224.8541 L 6.8327 224.6089 L 6.9707 224.3645 L 7.1086 224.1210 L 7.2464 223.8784 L 7.3841 223.6366 L 7.5218 223.3956 L 7.6593 223.1555 L 7.7968 222.9162 L 7.9342 222.6777 L 7.9342 222.6777 L 8.0715 222.4401 L 8.2087 222.2033 L 8.3459 221.9673 L 8.4830 221.7321 L 8.6200 221.4977 L 8.7570 221.2641 L 8.8939 221.0313 L 9.0307 220.7993 L 9.1675 220.5680 L 9.3043 220.3375 L 9.4410 220.1078 L 9.5776 219.8788 L 9.7143 219.6506 L 9.8508 219.4231 L 9.9874 219.1964 L 10.1239 218.9703 L 10.2604 218.7450 L 10.3968 218.5204 L 10.5333 218.2964 L 10.6697 218.0732 L 10.6697 218.0732 L 10.8061 217.8506 L 10.9426 217.6287 L 11.0790 217.4074 L 11.2154 217.1868 L 11.3518 216.9669 L 11.4882 216.7475 L 11.6247 216.5288 L 11.7611 216.3107 L 11.8976 216.0932 L 12.0341 215.8762 L 12.1706 215.6599 L 12.3072 215.4441 L 12.4438 215.2288 L 12.5805 215.0141 L 12.7172 214.8000 L 12.8539 214.5863 L 12.9908 214.3731 L 13.1276 214.1605 L 13.2646 213.9483 L 13.4016 213.7366 L 13.4016 213.7366 L 13.5387 213.5254 L 13.6759 213.3146 L 13.8132 213.1042 L 13.9505 212.8943 L 14.0880 212.6848 L 14.2256 212.4756 L 14.3632 212.2669 L 14.5010 212.0585 L 14.6389 211.8505 L 14.7769 211.6429 L 14.9151 211.4356 L 15.0533 211.2286 L 15.1917 211.0219 L 15.3303 210.8155 L 15.4690 210.6095 L 15.6078 210.4036 L 15.7468 210.1981 L 15.8860 209.9928 L 16.0253 209.7877 L 16.1648 209.5829 L 16.1648 209.5829 L 16.3045 209.3783 L 16.4444 209.1739 L 16.5844 208.9696 L 16.7246 208.7656 L 16.8650 208.5617 L 17.0057 208.3580 L 17.1465 208.1544 L 17.2875 207.9509 L 17.4288 207.7475 L 17.5702 207.5443 L 17.7119 207.3411 L 17.8538 207.1380 L 17.9960 206.9350 L 18.1384 206.7320 L 18.2810 206.5291 L 18.4239 206.3262 L 18.5670 206.1234 L 18.7104 205.9205 L 18.8540 205.7176 L 18.9979 205.5147 L 18.9979 205.5147 L 19.1421 205.3118 L 19.2865 205.1089 L 19.4312 204.9059 L 19.5762 204.7028 L 19.7215 204.4997 L 19.8671 204.2965 L 20.0129 204.0932 L 20.1591 203.8898 L 20.3055 203.6863 L 20.4523 203.4826 L 20.5994 203.2789 L 20.7467 203.0749 L 20.8944 202.8709 L 21.0424 202.6666 L 21.1908 202.4622 L 21.3394 202.2577 L 21.4884 202.0529 L 21.6377 201.8479 L 21.7874 201.6428 L 21.9374 201.4374 L 21.9374 201.4374 L 22.0877 201.2318 L 22.2383 201.0259 L 22.3894 200.8198 L 22.5407 200.6135 L 22.6924 200.4069 L 22.8445 200.2001 L 22.9969 199.9930 L 23.1497 199.7856 L 23.3028 199.5779 L 23.4563 199.3700 L 23.6102 199.1617 L 23.7644 198.9532 L 23.9190 198.7443 L 24.0740 198.5351 L 24.2293 198.3256 L 24.3850 198.1158 L 24.5411 197.9057 L 24.6976 197.6952 L 24.8544 197.4844 L 25.0117 197.2732 L 25.0117 197.2732 L 25.0353 197.2415 L 25.0589 197.2097 L 25.0826 197.1780 L 25.1063 197.1462 L 25.1299 197.1145 L 25.1536 197.0827 L 25.1773 197.0509 L 25.2010 197.0191 L 25.2247 196.9873 L 25.2485 196.9555 L 25.2722 196.9237 L 25.2959 196.8919 L 25.3197 196.8600 L 25.3434 196.8282 L 25.3672 196.7963 L 25.3909 196.7645 L 25.4147 196.7326 L 25.4385 196.7007 L 25.4623 196.6689 L 25.4861 196.6370 C 89.0479 150.2292 178.1958 164.1353 224.6036 227.6971 L 224.5717 227.6733 L 224.5398 227.6495 L 224.5079 227.6257 L 224.4761 227.6019 L 224.4442 227.5781 L 224.4124 227.5544 L 224.3805 227.5306 L 224.3487 227.5069 L 224.3169 227.4832 L 224.2851 227.4594 L 224.2532 227.4357 L 224.2214 227.4120 L 224.1897 227.3883 L 224.1579 227.3646 L 224.1261 227.3409 L 224.0943 227.3172 L 224.0626 227.2936 L 224.0308 227.2699 L 223.9991 227.2463 L 223.9673 227.2226 L 223.9673 227.2226 L 223.7562 227.0654 L 223.5454 226.9086 L 223.3349 226.7521 L 223.1247 226.5960 L 222.9149 226.4403 L 222.7054 226.2850 L 222.4963 226.1300 L 222.2874 225.9754 L 222.0788 225.8212 L 221.8706 225.6673 L 221.6626 225.5138 L 221.4550 225.3607 L 221.2476 225.2079 L 221.0405 225.0555 L 220.8336 224.9034 L 220.6270 224.7517 L 220.4207 224.6003 L 220.2146 224.4493 L 220.0088 224.2986 L 219.8032 224.1483 L 219.8032 224.1483 L 219.5978 223.9983 L 219.3926 223.8487 L 219.1877 223.6994 L 218.9829 223.5504 L 218.7783 223.4017 L 218.5739 223.2534 L 218.3697 223.1054 L 218.1656 222.9577 L 217.9617 222.8103 L 217.7579 222.6633 L 217.5543 222.5165 L 217.3508 222.3701 L 217.1474 222.2239 L 216.9441 222.0780 L 216.7409 221.9325 L 216.5377 221.7872 L 216.3347 221.6422 L 216.1317 221.4975 L 215.9287 221.3531 L 215.7258 221.2089 L 215.7258 221.2089 L 215.5229 221.0650 L 215.3201 220.9214 L 215.1172 220.7780 L 214.9143 220.6349 L 214.7114 220.4920 L 214.5085 220.3494 L 214.3055 220.2070 L 214.1025 220.0648 L 213.8994 219.9229 L 213.6963 219.7812 L 213.4930 219.6397 L 213.2897 219.4985 L 213.0862 219.3575 L 212.8826 219.2166 L 212.6789 219.0760 L 212.4750 218.9356 L 212.2709 218.7954 L 212.0667 218.6553 L 211.8623 218.5155 L 211.6576 218.3758 L 211.6576 218.3758 L 211.4528 218.2363 L 211.2478 218.0970 L 211.0425 217.9578 L 210.8369 217.8188 L 210.6311 217.6800 L 210.4250 217.5413 L 210.2187 217.4027 L 210.0120 217.2643 L 209.8050 217.1260 L 209.5977 216.9879 L 209.3900 216.8499 L 209.1820 216.7120 L 208.9737 216.5742 L 208.7649 216.4365 L 208.5558 216.2990 L 208.3463 216.1615 L 208.1363 216.0241 L 207.9260 215.8869 L 207.7152 215.7497 L 207.5039 215.6126 L 207.5039 215.6126 L 207.2922 215.4756 L 207.0801 215.3386 L 206.8674 215.2017 L 206.6543 215.0649 L 206.4406 214.9282 L 206.2264 214.7914 L 206.0117 214.6548 L 205.7965 214.5182 L 205.5807 214.3816 L 205.3643 214.2451 L 205.1474 214.1086 L 204.9299 213.9721 L 204.7117 213.8356 L 204.4930 213.6992 L 204.2737 213.5628 L 204.0537 213.4263 L 203.8331 213.2899 L 203.6119 213.1535 L 203.3900 213.0171 L 203.1674 212.8807 L 203.1674 212.8807 L 202.9441 212.7443 L 202.7202 212.6078 L 202.4956 212.4713 L 202.2702 212.3349 L 202.0442 212.1983 L 201.8174 212.0618 L 201.5899 211.9252 L 201.3617 211.7886 L 201.1327 211.6519 L 200.9030 211.5153 L 200.6725 211.3785 L 200.4413 211.2417 L 200.2093 211.1049 L 199.9764 210.9679 L 199.7429 210.8310 L 199.5085 210.6939 L 199.2733 210.5568 L 199.0373 210.4197 L 198.8005 210.2824 L 198.5628 210.1451 L 198.5628 210.1451 L 198.3244 210.0077 L 198.0851 209.8703 L 197.8450 209.7327 L 197.6040 209.5951 L 197.3622 209.4574 L 197.1195 209.3196 L 196.8760 209.1816 L 196.6317 209.0437 L 196.3864 208.9056 L 196.1403 208.7674 L 195.8934 208.6291 L 195.6455 208.4907 L 195.3968 208.3522 L 195.1472 208.2136 L 194.8967 208.0749 L 194.6454 207.9361 L 194.3931 207.7971 L 194.1400 207.6581 L 193.8859 207.5189 L 193.6310 207.3797 L 193.6310 207.3797 L 193.3751 207.2403 L 193.1184 207.1008 L 192.8607 206.9612 L 192.6022 206.8214 L 192.3427 206.6816 L 192.0823 206.5416 L 191.8211 206.4014 L 191.5589 206.2612 L 191.2957 206.1208 L 191.0317 205.9803 L 190.7668 205.8397 L 190.5009 205.6990 L 190.2341 205.5581 L 189.9664 205.4171 L 189.6978 205.2759 L 189.4282 205.1346 L 189.1578 204.9932 L 188.8864 204.8516 L 188.6141 204.7099 L 188.3408 204.5681 L 188.3408 204.5681 L 188.1846 204.4872 L 188.0281 204.4062 L 187.8713 204.3252 L 187.7142 204.2442 L 187.5568 204.1630 L 187.3991 204.0819 L 187.2411 204.0007 L 187.0827 203.9195 L 186.9241 203.8382 L 186.7652 203.7568 L 186.6060 203.6755 L 186.4465 203.5940 L 186.2867 203.5126 L 186.1266 203.4311 L 185.9661 203.3495 L 185.8054 203.2679 L 185.6444 203.1862 L 185.4831 203.1045 L 185.3214 203.0228 L 185.1595 202.9410 C 125.0793 161.1636 42.5074 176.0009 0.7300 236.0810 "
     fill-rule="nonzero"
     id="path3"
     style="stroke-width:0.02;stroke-dasharray:none" />
  <path
     transform="matrix(1,0,0,1,87.437202,-47.015633)"
     stroke="#000000"
     fill="none"
     vector-effect="non-scaling-stroke"
     data-view-type="laser"
     d="M 26.5806 168.4222 C 90.9426 123.1308 179.8342 138.5906 225.1256 202.9527 L 225.0942 202.9283 L 225.0627 202.9040 L 225.0313 202.8796 L 224.9998 202.8553 L 224.9684 202.8310 L 224.9369 202.8066 L 224.9055 202.7823 L 224.8741 202.7580 L 224.8427 202.7338 L 224.8113 202.7095 L 224.7799 202.6852 L 224.7485 202.6609 L 224.7172 202.6367 L 224.6858 202.6125 L 224.6544 202.5882 L 224.6231 202.5640 L 224.5917 202.5398 L 224.5604 202.5156 L 224.5291 202.4914 L 224.4978 202.4672 L 224.4978 202.4672 L 224.2894 202.3063 L 224.0813 202.1458 L 223.8736 201.9857 L 223.6662 201.8259 L 223.4592 201.6666 L 223.2524 201.5076 L 223.0460 201.3490 L 222.8398 201.1908 L 222.6340 201.0330 L 222.4285 200.8755 L 222.2232 200.7184 L 222.0183 200.5616 L 221.8136 200.4053 L 221.6092 200.2493 L 221.4050 200.0936 L 221.2011 199.9383 L 220.9974 199.7834 L 220.7940 199.6288 L 220.5909 199.4746 L 220.3879 199.3207 L 220.3879 199.3207 L 220.1852 199.1671 L 219.9826 199.0139 L 219.7803 198.8610 L 219.5782 198.7085 L 219.3762 198.5563 L 219.1744 198.4044 L 218.9728 198.2529 L 218.7714 198.1017 L 218.5701 197.9507 L 218.3689 197.8001 L 218.1678 197.6499 L 217.9669 197.4999 L 217.7661 197.3502 L 217.5654 197.2008 L 217.3647 197.0517 L 217.1642 196.9029 L 216.9637 196.7544 L 216.7632 196.6062 L 216.5628 196.4582 L 216.3625 196.3105 L 216.3625 196.3105 L 216.1621 196.1631 L 215.9618 196.0159 L 215.7615 195.8690 L 215.5611 195.7224 L 215.3607 195.5760 L 215.1603 195.4299 L 214.9599 195.2840 L 214.7594 195.1383 L 214.5588 194.9929 L 214.3581 194.8476 L 214.1574 194.7026 L 213.9565 194.5579 L 213.7555 194.4133 L 213.5544 194.2689 L 213.3532 194.1248 L 213.1518 193.9808 L 212.9502 193.8371 L 212.7484 193.6935 L 212.5465 193.5501 L 212.3443 193.4069 L 212.3443 193.4069 L 212.1420 193.2638 L 211.9394 193.1209 L 211.7366 192.9782 L 211.5335 192.8356 L 211.3301 192.6932 L 211.1265 192.5509 L 210.9226 192.4088 L 210.7183 192.2668 L 210.5138 192.1249 L 210.3089 191.9832 L 210.1037 191.8416 L 209.8981 191.7001 L 209.6922 191.5587 L 209.4859 191.4174 L 209.2792 191.2762 L 209.0721 191.1351 L 208.8646 190.9941 L 208.6567 190.8532 L 208.4483 190.7123 L 208.2395 190.5716 L 208.2395 190.5716 L 208.0302 190.4309 L 207.8205 190.2902 L 207.6102 190.1497 L 207.3995 190.0092 L 207.1883 189.8687 L 206.9765 189.7283 L 206.7642 189.5879 L 206.5514 189.4475 L 206.3380 189.3072 L 206.1241 189.1669 L 205.9096 189.0267 L 205.6944 188.8864 L 205.4787 188.7462 L 205.2624 188.6059 L 205.0455 188.4657 L 204.8280 188.3255 L 204.6098 188.1852 L 204.3909 188.0450 L 204.1714 187.9047 L 203.9513 187.7644 L 203.9513 187.7644 L 203.7305 187.6241 L 203.5089 187.4838 L 203.2867 187.3434 L 203.0638 187.2030 L 202.8402 187.0626 L 202.6158 186.9221 L 202.3908 186.7816 L 202.1649 186.6410 L 201.9384 186.5003 L 201.7111 186.3597 L 201.4830 186.2189 L 201.2542 186.0781 L 201.0246 185.9372 L 200.7942 185.7963 L 200.5630 185.6552 L 200.3311 185.5141 L 200.0983 185.3730 L 199.8647 185.2317 L 199.6304 185.0903 L 199.3952 184.9489 L 199.3952 184.9489 L 199.1591 184.8074 L 198.9223 184.6658 L 198.6846 184.5240 L 198.4461 184.3822 L 198.2067 184.2403 L 197.9665 184.0983 L 197.7254 183.9561 L 197.4835 183.8139 L 197.2407 183.6715 L 196.9971 183.5291 L 196.7526 183.3865 L 196.5072 183.2438 L 196.2609 183.1010 L 196.0138 182.9581 L 195.7658 182.8150 L 195.5169 182.6718 L 195.2671 182.5285 L 195.0164 182.3851 L 194.7648 182.2415 L 194.5123 182.0978 L 194.5123 182.0978 L 194.2590 181.9540 L 194.0047 181.8100 L 193.7495 181.6659 L 193.4934 181.5217 L 193.2364 181.3773 L 192.9786 181.2328 L 192.7198 181.0881 L 192.4600 180.9433 L 192.1994 180.7984 L 191.9379 180.6533 L 191.6754 180.5081 L 191.4121 180.3627 L 191.1478 180.2172 L 190.8826 180.0715 L 190.6165 179.9257 L 190.3494 179.7797 L 190.0815 179.6336 L 189.8126 179.4873 L 189.5428 179.3409 L 189.2720 179.1943 L 189.2720 179.1943 L 189.1173 179.1107 L 188.9622 179.0270 L 188.8068 178.9433 L 188.6512 178.8595 L 188.4952 178.7757 L 188.3389 178.6918 L 188.1824 178.6078 L 188.0255 178.5238 L 187.8683 178.4398 L 187.7108 178.3557 L 187.5531 178.2716 L 187.3950 178.1874 L 187.2366 178.1031 L 187.0780 178.0188 L 186.9190 177.9345 L 186.7597 177.8501 L 186.6001 177.7656 L 186.4403 177.6811 L 186.2801 177.5965 L 186.1196 177.5119 C 126.7777 134.6923 43.9594 148.0863 1.1398 207.4282 L 1.2244 207.2677 L 1.3090 207.1076 L 1.3935 206.9477 L 1.4780 206.7881 L 1.5624 206.6288 L 1.6467 206.4699 L 1.7310 206.3112 L 1.8153 206.1528 L 1.8995 205.9948 L 1.9836 205.8370 L 2.0677 205.6795 L 2.1517 205.5223 L 2.2357 205.3655 L 2.3197 205.2089 L 2.4036 205.0526 L 2.4874 204.8967 L 2.5712 204.7410 L 2.6549 204.5856 L 2.7386 204.4306 L 2.8222 204.2758 L 2.8222 204.2758 L 2.9688 204.0051 L 3.1152 203.7353 L 3.2615 203.4664 L 3.4076 203.1984 L 3.5536 202.9314 L 3.6994 202.6653 L 3.8451 202.4001 L 3.9906 202.1358 L 4.1360 201.8724 L 4.2812 201.6099 L 4.4263 201.3484 L 4.5712 201.0878 L 4.7160 200.8281 L 4.8607 200.5693 L 5.0052 200.3114 L 5.1496 200.0544 L 5.2938 199.7983 L 5.4379 199.5432 L 5.5819 199.2889 L 5.7257 199.0355 L 5.7257 199.0355 L 5.8694 198.7830 L 6.0130 198.5315 L 6.1564 198.2808 L 6.2997 198.0310 L 6.4429 197.7821 L 6.5860 197.5341 L 6.7289 197.2869 L 6.8717 197.0407 L 7.0144 196.7953 L 7.1570 196.5507 L 7.2994 196.3071 L 7.4418 196.0643 L 7.5840 195.8224 L 7.7262 195.5813 L 7.8682 195.3411 L 8.0101 195.1018 L 8.1519 194.8632 L 8.2937 194.6255 L 8.4353 194.3887 L 8.5768 194.1527 L 8.5768 194.1527 L 8.7182 193.9175 L 8.8596 193.6831 L 9.0009 193.4495 L 9.1420 193.2168 L 9.2831 192.9848 L 9.4242 192.7536 L 9.5651 192.5232 L 9.7060 192.2936 L 9.8468 192.0648 L 9.9876 191.8367 L 10.1283 191.6094 L 10.2689 191.3829 L 10.4095 191.1571 L 10.5500 190.9320 L 10.6905 190.7077 L 10.8309 190.4840 L 10.9713 190.2611 L 11.1117 190.0389 L 11.2520 189.8174 L 11.3923 189.5966 L 11.3923 189.5966 L 11.5326 189.3764 L 11.6729 189.1569 L 11.8131 188.9381 L 11.9534 188.7199 L 12.0936 188.5023 L 12.2338 188.2854 L 12.3741 188.0691 L 12.5143 187.8534 L 12.6546 187.6383 L 12.7948 187.4238 L 12.9351 187.2098 L 13.0754 186.9964 L 13.2158 186.7836 L 13.3562 186.5713 L 13.4966 186.3596 L 13.6371 186.1483 L 13.7776 185.9376 L 13.9182 185.7274 L 14.0588 185.5176 L 14.1995 185.3083 L 14.1995 185.3083 L 14.3402 185.0995 L 14.4811 184.8911 L 14.6220 184.6832 L 14.7630 184.4757 L 14.9041 184.2686 L 15.0453 184.0619 L 15.1866 183.8556 L 15.3280 183.6497 L 15.4695 183.4441 L 15.6111 183.2389 L 15.7528 183.0341 L 15.8947 182.8295 L 16.0367 182.6253 L 16.1788 182.4214 L 16.3211 182.2177 L 16.4635 182.0144 L 16.6061 181.8113 L 16.7488 181.6084 L 16.8917 181.4059 L 17.0348 181.2035 L 17.0348 181.2035 L 17.1780 181.0013 L 17.3214 180.7994 L 17.4650 180.5976 L 17.6087 180.3961 L 17.7527 180.1947 L 17.8968 179.9934 L 18.0412 179.7923 L 18.1858 179.5913 L 18.3305 179.3905 L 18.4755 179.1897 L 18.6208 178.9890 L 18.7662 178.7885 L 18.9119 178.5879 L 19.0578 178.3875 L 19.2039 178.1871 L 19.3503 177.9867 L 19.4969 177.7864 L 19.6438 177.5861 L 19.7910 177.3857 L 19.9384 177.1854 L 19.9384 177.1854 L 20.0861 176.9850 L 20.2341 176.7846 L 20.3823 176.5842 L 20.5308 176.3837 L 20.6796 176.1831 L 20.8287 175.9825 L 20.9781 175.7818 L 21.1278 175.5809 L 21.2778 175.3800 L 21.4280 175.1790 L 21.5786 174.9778 L 21.7296 174.7765 L 21.8808 174.5750 L 22.0323 174.3734 L 22.1842 174.1716 L 22.3364 173.9697 L 22.4889 173.7675 L 22.6418 173.5652 L 22.7950 173.3627 L 22.9486 173.1599 L 22.9486 173.1599 L 23.1025 172.9570 L 23.2567 172.7538 L 23.4113 172.5504 L 23.5662 172.3467 L 23.7215 172.1428 L 23.8772 171.9387 L 24.0332 171.7343 L 24.1895 171.5296 L 24.3463 171.3246 L 24.5034 171.1194 L 24.6609 170.9138 L 24.8187 170.7080 L 24.9769 170.5019 L 25.1355 170.2954 L 25.2945 170.0887 L 25.4538 169.8816 L 25.6136 169.6742 L 25.7737 169.4665 L 25.9342 169.2585 L 26.0951 169.0501 L 26.0951 169.0501 L 26.1193 169.0188 L 26.1435 168.9874 L 26.1677 168.9561 L 26.1919 168.9248 L 26.2161 168.8934 L 26.2404 168.8620 L 26.2646 168.8307 L 26.2888 168.7993 L 26.3131 168.7679 L 26.3374 168.7365 L 26.3617 168.7051 L 26.3859 168.6737 L 26.4102 168.6423 L 26.4345 168.6109 L 26.4589 168.5795 L 26.4832 168.5480 L 26.5075 168.5166 L 26.5319 168.4851 L 26.5562 168.4537 L 26.5806 168.4222 "
     fill-rule="nonzero"
     id="path4"
     style="stroke-width:0.02;stroke-dasharray:none" />
</svg>
