<?xml version="1.0" encoding="UTF-8" standalone="no"?>
<!-- Created with xTool Creative Space (https://www.xtool.com/pages/software) -->

<svg
   version="1.1"
   preserveAspectRatio="xMinYMin meet"
   width="285mm"
   height="284.9999694824219mm"
   viewBox="57.499999999999986 7.500015258789082 285 284.9999694824219"
   xcs:version="2.6.38"
   id="svg2"
   sodipodi:docname="upper_part.svg"
   inkscape:version="1.3.2 (091e20e, 2023-11-25, custom)"
   xmlns:inkscape="http://www.inkscape.org/namespaces/inkscape"
   xmlns:sodipodi="http://sodipodi.sourceforge.net/DTD/sodipodi-0.dtd"
   xmlns="http://www.w3.org/2000/svg"
   xmlns:svg="http://www.w3.org/2000/svg"
   xmlns:xcs="https://www.xtool.com/pages/software">
  <defs
     id="defs2" />
  <sodipodi:namedview
     id="namedview2"
     pagecolor="#ffffff"
     bordercolor="#000000"
     borderopacity="0.25"
     inkscape:showpageshadow="2"
     inkscape:pageopacity="0.0"
     inkscape:pagecheckerboard="0"
     inkscape:deskcolor="#d1d1d1"
     inkscape:document-units="mm"
     inkscape:zoom="0.45675443"
     inkscape:cx="538.58262"
     inkscape:cy="538.58262"
     inkscape:window-width="1280"
     inkscape:window-height="730"
     inkscape:window-x="-6"
     inkscape:window-y="-6"
     inkscape:window-maximized="1"
     inkscape:current-layer="svg2" />
  <style
     id="style1" />
  <path
     transform="matrix(1,0,0,1,137,-314.891251)"
     stroke="#000000"
     fill="none"
     vector-effect="non-scaling-stroke"
     data-view-type="laser"
     d="M -79.5000 464.8913 C -79.5000 413.9809 -52.3396 366.9378 -8.2500 341.4826 C 35.8397 316.0275 90.1604 316.0275 134.2500 341.4826 C 178.3397 366.9378 205.5000 413.9809 205.5000 464.8913 C 205.5000 515.8016 178.3397 562.8447 134.2500 588.2999 C 90.1603 613.7551 35.8396 613.7550 -8.2500 588.2999 C -52.3397 562.8447 -79.5000 515.8016 -79.5000 464.8912 L -79.5000 464.8913 "
     fill-rule="nonzero"
     id="path1"
     style="stroke-width:0.02;stroke-dasharray:none" />
  <path
     transform="matrix(1,0,0,1,137,-314.891251)"
     stroke="#000000"
     fill="none"
     vector-effect="non-scaling-stroke"
     data-view-type="laser"
     d="M 0.0000 468.8913 L 3.0000 467.8913 L 3.0000 461.8913 L 0.0000 460.8913 L 0.0000 459.8913 L 63.0000 459.8913 L 68.0000 459.8913 L 68.0000 350.0000 C 129.5100 352.6769 178.0000 403.3231 178.0000 464.8913 C 178.0000 526.4594 129.5100 577.1056 68.0000 579.7825 L 68.0000 579.7825 L 68.0000 469.8913 L 0.0000 469.8913 L 0.0000 468.8913 "
     fill-rule="nonzero"
     id="path2"
     style="stroke-width:0.02;stroke-dasharray:none" />
</svg>
